<?xml version="1.0" encoding="UTF-8"?>
<svg width="512px" height="512px" viewBox="0 0 512 512" version="1.1" xmlns="http://www.w3.org/2000/svg" xmlns:xlink="http://www.w3.org/1999/xlink">
    <defs>
        <path d="M264.874844,173.156527 C276.650357,133.591644 288.611602,94.9864253 301.709143,94.9864253 C310.914348,94.9864253 327.014892,120.756204 344.401395,156.760331 L310.939328,178.887893 C310.512424,179.170192 309.937502,179.052968 309.655202,178.626064 C309.598644,178.540535 309.556672,178.446212 309.530999,178.346939 L304.065198,157.212 C303.937054,156.716502 303.431493,156.418701 302.935994,156.546844 C302.88132,156.560984 302.828053,156.580091 302.776858,156.603928 L266.131783,173.666284 C265.667828,173.882307 265.116596,173.681318 264.900573,173.217363 C264.891265,173.197372 264.882685,173.17708 264.874844,173.156527 Z" id="path-1"></path>
    </defs>
    <g stroke="none" stroke-width="1" fill="none" fill-rule="evenodd">
        <circle fill="#E06227" cx="256" cy="256" r="256"></circle>
        <path d="M104.706535,391.761255 C62.2605942,430.728055 144.215532,198.662733 163.428928,179.925924 C182.642324,161.189116 191.08968,211.460889 220.000465,252.435129 C248.91125,293.40937 272.64565,94.9864253 302.177358,94.9864253 C331.709067,94.9864253 432.460976,363.131092 417.900438,378.976179 C403.3399,394.821267 343.398361,272.518244 317.459577,266.148712 C291.520793,259.779181 266.643823,314.541426 239.602193,319.102692 C212.560562,323.663958 204.203001,279.122258 183.711383,280.79447 C163.219766,282.466681 147.152475,352.794455 104.706535,391.761255 Z" id="Path" stroke="#FFFFFF" stroke-width="9.27"></path>
        <mask fill="white">
            <use xlink:href="#path-1"></use>
        </mask>
        <use id="Combined-Shape" fill="#FFFFFF" xlink:href="#path-1"></use>
    </g>
</svg>
